<svg width="3840" height="2160" viewBox="0 0 3840 2160" fill="none" xmlns="http://www.w3.org/2000/svg">
<rect width="3840" height="2160" fill="#2C292E"/>
<ellipse cx="342.5" cy="439.577" rx="184.691" ry="269.982" transform="rotate(-13.732 342.5 439.577)" fill="#8C26D0"/>
<ellipse cx="776.461" cy="1248.86" rx="239.071" ry="199.1" transform="rotate(5.96284 776.461 1248.86)" fill="#8C26D0"/>
<ellipse cx="3367.14" cy="458.554" rx="286.543" ry="269.982" transform="rotate(12.4877 3367.14 458.554)" fill="#8C26D0"/>
<ellipse cx="1171.24" cy="527" rx="86.9896" ry="89.3029" transform="rotate(12.4877 1171.24 527)" fill="#8C26D0"/>
<ellipse cx="3029.16" cy="1261.5" rx="97.4475" ry="101.838" transform="rotate(12.4877 3029.16 1261.5)" fill="#8C26D0"/>
<ellipse cx="2071.88" cy="1422.45" rx="286.543" ry="351.816" transform="rotate(12.4877 2071.88 1422.45)" fill="#8C26D0"/>
<ellipse cx="2138.4" cy="466.371" rx="248.318" ry="184.163" transform="rotate(-15.9686 2138.4 466.371)" fill="#8C26D0"/>
<ellipse cx="342.048" cy="1896.75" rx="98.718" ry="99.4339" transform="rotate(-1.35849 342.048 1896.75)" fill="#8C26D0"/>
<ellipse cx="3386.37" cy="1896.89" rx="98.718" ry="304.887" transform="rotate(-78.6303 3386.37 1896.89)" fill="#8C26D0"/>
</svg>
