<svg width="40" height="40" viewBox="0 0 40 40" fill="none" xmlns="http://www.w3.org/2000/svg">
<g clip-path="url(#clip0_11_1057)">
<path d="M0 0V40H40V0H0ZM37.5258 37.5258H2.47423V2.47423H37.5258V37.5258Z" fill="white"/>
<path d="M26.4354 7.01393H13.5646C9.95107 7.01393 7.01172 9.95369 7.01172 13.5668V26.4377C7.01172 30.0511 9.95107 32.9901 13.5646 32.9901H26.4354C30.0489 32.9901 32.9879 30.0511 32.9879 26.4377V13.5668C32.9879 9.95369 30.0489 7.01393 26.4354 7.01393ZM30.1613 26.4377C30.1613 28.4923 28.4897 30.1639 26.4354 30.1639H13.5646C11.5103 30.1639 9.83872 28.4923 9.83872 26.4377V13.5668C9.83872 11.5126 11.5103 9.84133 13.5646 9.84133H26.4354C28.4897 9.84133 30.1613 11.5126 30.1613 13.5668V26.4377Z" fill="white"/>
<path d="M26.9052 14.6955C26.0322 14.6955 25.3218 13.9856 25.3218 13.1125C25.3218 12.2398 26.0322 11.5299 26.9052 11.5299C27.7783 11.5299 28.4883 12.2398 28.4883 13.1125C28.4883 13.9856 27.7783 14.6955 26.9052 14.6955Z" fill="white"/>
<path d="M19.9998 13.3123C16.3114 13.3123 13.3101 16.3132 13.3101 20.002C13.3101 23.6908 16.3114 26.6922 19.9998 26.6922C23.689 26.6922 26.6904 23.6908 26.6904 20.002C26.6904 16.3136 23.689 13.3123 19.9998 13.3123ZM19.9998 23.866C17.8707 23.866 16.1367 22.1323 16.1367 20.002C16.1367 17.8725 17.8707 16.1397 19.9998 16.1397C22.1301 16.1397 23.863 17.8725 23.863 20.002C23.863 22.1323 22.1301 23.866 19.9998 23.866Z" fill="white"/>
</g>
<defs>
<clipPath id="clip0_11_1057">
<rect width="40" height="40" fill="white"/>
</clipPath>
</defs>
</svg>
