<svg width="25" height="24" viewBox="0 0 25 24" fill="none" xmlns="http://www.w3.org/2000/svg">
<path d="M12.5 24L10.6875 22.2997C8.58333 20.3161 6.84375 18.6049 5.46875 17.1662C4.09375 15.7275 3 14.436 2.1875 13.2916C1.375 12.1471 0.807292 11.0954 0.484375 10.1362C0.161458 9.17711 0 8.19619 0 7.19346C0 5.14441 0.65625 3.43324 1.96875 2.05995C3.28125 0.686648 4.91667 0 6.875 0C7.95833 0 8.98958 0.239782 9.96875 0.719346C10.9479 1.19891 11.7917 1.87466 12.5 2.74659C13.2083 1.87466 14.0521 1.19891 15.0312 0.719346C16.0104 0.239782 17.0417 0 18.125 0C20.0833 0 21.7188 0.686648 23.0312 2.05995C24.3438 3.43324 25 5.14441 25 7.19346C25 8.19619 24.8385 9.17711 24.5156 10.1362C24.1927 11.0954 23.625 12.1471 22.8125 13.2916C22 14.436 20.9062 15.7275 19.5312 17.1662C18.1562 18.6049 16.4167 20.3161 14.3125 22.2997L12.5 24ZM12.5 20.4687C14.5 18.594 16.1458 16.9864 17.4375 15.6458C18.7292 14.3052 19.75 13.139 20.5 12.1471C21.25 11.1553 21.7708 10.2725 22.0625 9.49864C22.3542 8.7248 22.5 7.9564 22.5 7.19346C22.5 5.88556 22.0833 4.79564 21.25 3.92371C20.4167 3.05177 19.375 2.6158 18.125 2.6158C17.1458 2.6158 16.2396 2.90463 15.4062 3.48229C14.5729 4.05995 14 4.79564 13.6875 5.68937H11.3125C11 4.79564 10.4271 4.05995 9.59375 3.48229C8.76042 2.90463 7.85417 2.6158 6.875 2.6158C5.625 2.6158 4.58333 3.05177 3.75 3.92371C2.91667 4.79564 2.5 5.88556 2.5 7.19346C2.5 7.9564 2.64583 8.7248 2.9375 9.49864C3.22917 10.2725 3.75 11.1553 4.5 12.1471C5.25 13.139 6.27083 14.3052 7.5625 15.6458C8.85417 16.9864 10.5 18.594 12.5 20.4687Z" fill="#CC2C53"/>
</svg>
