<svg width="31" height="20" viewBox="0 0 31 20" fill="none" xmlns="http://www.w3.org/2000/svg">
<path d="M15.5 16C17.2614 16 18.7585 15.4167 19.9915 14.25C21.2244 13.0833 21.8409 11.6667 21.8409 10C21.8409 8.33333 21.2244 6.91667 19.9915 5.75C18.7585 4.58333 17.2614 4 15.5 4C13.7386 4 12.2415 4.58333 11.0085 5.75C9.77557 6.91667 9.15909 8.33333 9.15909 10C9.15909 11.6667 9.77557 13.0833 11.0085 14.25C12.2415 15.4167 13.7386 16 15.5 16ZM15.5 13.6C14.4432 13.6 13.5449 13.25 12.8051 12.55C12.0653 11.85 11.6955 11 11.6955 10C11.6955 9 12.0653 8.15 12.8051 7.45C13.5449 6.75 14.4432 6.4 15.5 6.4C16.5568 6.4 17.4551 6.75 18.1949 7.45C18.9347 8.15 19.3045 9 19.3045 10C19.3045 11 18.9347 11.85 18.1949 12.55C17.4551 13.25 16.5568 13.6 15.5 13.6ZM15.5 20C12.0712 20 8.94773 19.0944 6.12955 17.2833C3.31136 15.4722 1.26818 13.0444 0 10C1.26818 6.95556 3.31136 4.52778 6.12955 2.71667C8.94773 0.905555 12.0712 0 15.5 0C18.9288 0 22.0523 0.905555 24.8705 2.71667C27.6886 4.52778 29.7318 6.95556 31 10C29.7318 13.0444 27.6886 15.4722 24.8705 17.2833C22.0523 19.0944 18.9288 20 15.5 20ZM15.5 17.3333C18.1538 17.3333 20.5903 16.6722 22.8097 15.35C25.029 14.0278 26.7258 12.2444 27.9 10C26.7258 7.75556 25.029 5.97222 22.8097 4.65C20.5903 3.32778 18.1538 2.66667 15.5 2.66667C12.8462 2.66667 10.4097 3.32778 8.19034 4.65C5.97102 5.97222 4.27424 7.75556 3.1 10C4.27424 12.2444 5.97102 14.0278 8.19034 15.35C10.4097 16.6722 12.8462 17.3333 15.5 17.3333Z" fill="#DA7315"/>
</svg>
