<svg width="40" height="40" viewBox="0 0 40 40" fill="none" xmlns="http://www.w3.org/2000/svg">
<g clip-path="url(#clip0_11_1051)">
<path d="M11.9385 22.76C12.9414 24.1189 14.0938 25.3206 15.5825 26.1708C17.2684 27.1343 19.0835 27.4249 20.9978 27.3363C21.8921 27.2935 22.1611 27.0602 22.2024 26.1691C22.2301 25.5586 22.3006 24.9497 22.6012 24.4011C22.8966 23.8631 23.3448 23.7613 23.8618 24.096C24.1192 24.2651 24.3361 24.4768 24.5413 24.7033C25.0451 25.2532 25.5329 25.8228 26.0548 26.3547C26.7111 27.0229 27.4894 27.4166 28.4659 27.3363L32.2494 27.338C32.8583 27.2967 33.175 26.5503 32.8254 25.8686C32.5793 25.3927 32.2562 24.9694 31.9147 24.5586C31.1415 23.6298 30.2304 22.8383 29.3689 21.9981C28.5925 21.24 28.5432 20.7999 29.1669 19.9253C29.8496 18.9697 30.5815 18.0522 31.2694 17.1018C31.9111 16.2139 32.5696 15.3273 32.9056 14.2655C33.1209 13.5876 32.9305 13.289 32.2381 13.1691C32.1183 13.1495 31.9936 13.1495 31.8721 13.1495L27.7552 13.1443C27.2481 13.1363 26.9691 13.3579 26.79 13.8073C26.5471 14.415 26.2977 15.0222 26.0084 15.6066C25.3554 16.9362 24.6247 18.2213 23.6006 19.308C23.3741 19.5474 23.1228 19.8512 22.7455 19.7265C22.2745 19.5541 22.135 18.7764 22.1431 18.5139L22.1395 13.7616C22.048 13.0841 21.8966 12.7803 21.2223 12.6485H16.9462C16.377 12.6485 16.0896 12.8705 15.7842 13.2265C15.6102 13.4336 15.5558 13.5664 15.9172 13.6353C16.626 13.7697 17.0284 14.2294 17.1334 14.9404C17.3026 16.078 17.291 17.22 17.1927 18.3608C17.1647 18.6939 17.1073 19.0258 16.9756 19.3376C16.769 19.8283 16.434 19.9269 15.9959 19.625C15.6006 19.3525 15.3216 18.9684 15.0471 18.5828C14.0213 17.1331 13.204 15.5709 12.5358 13.9291C12.3438 13.4546 12.0107 13.1675 11.5084 13.1592C10.2739 13.1395 9.03806 13.1366 7.80191 13.1608C7.05996 13.174 6.83831 13.5351 7.14212 14.2097C8.48651 17.202 9.98361 20.1105 11.9385 22.76Z" fill="white"/>
<path d="M0 0V40H40V0H0ZM37.5258 37.5258H2.47423V2.47423H37.5258V37.5258Z" fill="white"/>
</g>
<defs>
<clipPath id="clip0_11_1051">
<rect width="40" height="40" fill="white"/>
</clipPath>
</defs>
</svg>
