<svg width="40" height="40" viewBox="0 0 40 40" fill="none" xmlns="http://www.w3.org/2000/svg">
<g clip-path="url(#clip0_11_1054)">
<path d="M10.2709 28.6946C13.4922 29.0535 16.7522 29.0557 19.9987 29.0535C23.2461 29.0557 26.5067 29.0535 29.7267 28.6946C31.0869 28.5425 32.2171 27.5226 32.5354 26.1411C32.9883 24.1743 32.9896 22.0255 32.9896 19.9997C32.9896 17.9742 32.9938 15.8264 32.5405 13.8595C32.2222 12.4768 31.0924 11.4581 29.7316 11.3064C26.5106 10.9462 23.2499 10.9449 20.0041 10.9462C16.7577 10.9449 13.4961 10.9462 10.2744 11.3064C8.91554 11.4581 7.78538 12.4768 7.46837 13.8595C7.01573 15.8264 7.01025 17.9742 7.01025 20C7.01025 22.0258 7.01025 24.1743 7.46354 26.1411C7.78023 27.5226 8.91038 28.5425 10.2709 28.6946ZM16.6478 15.4417C19.4004 16.8779 22.1356 18.3041 24.9065 19.75C22.1436 21.1824 19.4081 22.6015 16.6478 24.0329V15.4417Z" fill="white"/>
<path d="M0 0V40H40V0H0ZM37.5258 37.5258H2.47423V2.47423H37.5258V37.5258Z" fill="white"/>
</g>
<defs>
<clipPath id="clip0_11_1054">
<rect width="40" height="40" fill="white"/>
</clipPath>
</defs>
</svg>
