<svg width="1024" height="120" viewBox="0 0 1024 120" fill="none" xmlns="http://www.w3.org/2000/svg">
<rect width="1024" height="120" fill="#2C292E"/>
<mask id="mask0_11_1108" style="mask-type:alpha" maskUnits="userSpaceOnUse" x="190" y="16" width="241" height="104">
<rect x="190" y="16" width="241" height="104" fill="#2C292E"/>
</mask>
<g mask="url(#mask0_11_1108)">
<ellipse cx="302" cy="145" rx="122" ry="69" fill="#ACABAC"/>
<ellipse cx="300.36" cy="131.8" rx="84.36" ry="46.8" fill="#8C26D0"/>
<ellipse cx="302.04" cy="142.3" rx="71.04" ry="40.3" fill="#2C292E"/>
</g>
<mask id="mask1_11_1108" style="mask-type:alpha" maskUnits="userSpaceOnUse" x="0" y="0" width="165" height="120">
<rect width="165" height="120" fill="#2C292E"/>
</mask>
<g mask="url(#mask1_11_1108)">
<ellipse cx="-10" cy="68.5" rx="74" ry="74.5" fill="#8C26D0"/>
</g>
<ellipse cx="494.5" cy="45.5" rx="56.5" ry="41.5" fill="#8C26D0"/>
<mask id="mask2_11_1108" style="mask-type:alpha" maskUnits="userSpaceOnUse" x="924" y="0" width="100" height="120">
<rect x="924" width="100" height="120" fill="#2C292E"/>
</mask>
<g mask="url(#mask2_11_1108)">
<ellipse cx="1014" cy="92" rx="76" ry="65" fill="#ACABAC"/>
<ellipse cx="1016" cy="101" rx="58" ry="56" fill="#8C26D0"/>
<ellipse cx="1016" cy="104.5" rx="36" ry="36.5" fill="#2C292E"/>
</g>
<ellipse cx="723.5" cy="76" rx="34.5" ry="31" fill="#8C26D0"/>
</svg>
