<svg width="2000" height="226" viewBox="0 0 2000 226" fill="none" xmlns="http://www.w3.org/2000/svg">
<rect width="2000" height="226" fill="#2C292E"/>
<ellipse cx="91.1481" cy="92.7113" rx="91.1481" ry="92.7113" transform="matrix(0.952912 0.303248 -0.390265 0.920702 72.3641 0)" fill="#ACABAC"/>
<ellipse cx="69.8241" cy="77.3904" rx="69.8241" ry="77.3904" transform="matrix(0.952912 0.303248 -0.390265 0.920702 86.4015 22.1001)" fill="#8C26D0"/>
<ellipse cx="46.1602" cy="48.1167" rx="46.1602" ry="48.1167" transform="matrix(0.952912 0.303248 -0.390265 0.920702 97.8016 56.2063)" fill="#2C292E"/>
<ellipse cx="48.4451" cy="40.5195" rx="48.4451" ry="40.5195" transform="matrix(0.996107 -0.0881494 0.117061 0.993125 1286.3 32.3586)" fill="#8C26D0"/>
<ellipse cx="122.856" cy="80.4089" rx="122.856" ry="80.4089" transform="matrix(0.952912 0.303248 -0.390265 0.920702 926.139 1.60864)" fill="#ACABAC"/>
<ellipse cx="85.1732" cy="60.218" rx="85.1732" ry="60.218" transform="matrix(0.952912 0.303248 -0.390265 0.920702 952.031 31.2209)" fill="#8C26D0"/>
<ellipse cx="58.0063" cy="37.6123" rx="58.0063" ry="37.6123" transform="matrix(0.952912 0.303248 -0.390265 0.920702 970.699 56.2063)" fill="#2C292E"/>
<ellipse cx="69.3724" cy="47.9168" rx="69.3724" ry="47.9168" transform="matrix(1 -0.00025511 0.0003398 1 1600.29 108.063)" fill="#ACABAC"/>
<ellipse cx="53.3947" cy="33.1148" rx="53.3947" ry="33.1148" transform="matrix(1 -0.00025511 0.0003398 1 1616.31 122.861)" fill="#8C26D0"/>
<ellipse cx="40.0473" cy="25.7151" rx="40.0473" ry="25.7151" transform="matrix(1 -0.00025511 0.0003398 1 1629.13 130.257)" fill="#2C292E"/>
<ellipse cx="61.8045" cy="45.7994" rx="61.8045" ry="45.7994" transform="matrix(0.99958 -0.0289772 0.0385843 0.999255 605.991 94.0272)" fill="#8C26D0"/>
<ellipse cx="55.7598" cy="51.4308" rx="55.7598" ry="51.4308" transform="matrix(0.817895 0.575368 -0.683751 0.729715 1908.79 24.7433)" fill="#8C26D0"/>
</svg>
